<?xml version="1.0" standalone="no"?>
<!DOCTYPE svg PUBLIC "-//W3C//DTD SVG 20010904//EN"
 "http://www.w3.org/TR/2001/REC-SVG-20010904/DTD/svg10.dtd">
<svg version="1.0" xmlns="http://www.w3.org/2000/svg"
 width="4167.000000pt" height="4167.000000pt" viewBox="0 0 4167.000000 4167.000000"
 preserveAspectRatio="xMidYMid meet">
<metadata>
Created by potrace 1.11, written by Peter Selinger 2001-2013
</metadata>
<g transform="translate(0.000000,4167.000000) scale(0.100000,-0.100000)"
fill="#000000" stroke="none">
<path d="M8155 32030 c-236 -3 -436 -9 -444 -14 -7 -5 -57 -9 -110 -10 -155
-3 -319 -58 -427 -143 -60 -48 -136 -165 -173 -267 -23 -64 -25 -85 -25 -216
0 -135 3 -158 43 -330 24 -102 67 -268 96 -370 85 -293 188 -689 305 -1170
119 -491 181 -730 271 -1043 71 -249 102 -374 130 -527 27 -153 49 -236 124
-480 128 -415 226 -800 325 -1283 106 -518 186 -817 350 -1307 108 -322 145
-459 185 -680 31 -173 73 -342 115 -465 43 -125 120 -429 175 -690 49 -237 99
-440 145 -600 16 -55 47 -188 68 -295 22 -107 56 -242 77 -300 58 -166 119
-386 175 -630 80 -352 158 -656 184 -719 29 -72 43 -135 50 -228 4 -40 17
-102 32 -140 95 -250 190 -611 278 -1053 90 -453 144 -664 256 -1000 40 -120
63 -211 75 -290 29 -195 43 -256 105 -443 122 -372 226 -772 305 -1177 134
-688 211 -992 385 -1515 75 -228 92 -290 105 -395 22 -169 26 -186 100 -410
132 -403 239 -807 345 -1305 102 -478 196 -833 330 -1250 82 -255 177 -584
244 -843 65 -251 92 -308 191 -408 113 -113 229 -172 476 -241 160 -45 108
-43 1214 -26 781 12 773 11 952 72 133 46 227 104 328 206 128 127 158 190
235 501 32 131 93 343 134 469 75 232 177 585 281 970 149 551 192 710 266
970 44 154 95 324 114 377 19 53 41 136 50 185 9 48 48 181 85 294 93 278 169
561 236 874 85 398 172 719 250 921 58 153 66 183 75 276 6 71 17 119 42 185
127 328 395 1270 622 2188 204 825 323 1258 502 1835 47 151 96 311 110 355
30 102 108 416 163 655 44 195 94 360 180 600 99 277 159 513 265 1050 61 310
132 559 239 841 13 36 29 106 35 155 6 57 21 118 41 168 37 94 151 492 301
1051 148 550 285 1031 358 1252 33 100 81 267 106 370 94 385 106 429 148 533
78 192 194 360 249 360 11 0 35 16 52 35 l32 34 68 -10 c127 -18 221 -75 291
-178 50 -73 97 -206 185 -521 28 -102 83 -282 122 -400 93 -285 204 -678 263
-925 143 -602 198 -803 340 -1235 96 -293 116 -376 136 -540 13 -115 35 -194
134 -500 206 -636 418 -1410 635 -2325 174 -735 433 -1664 644 -2310 87 -267
113 -368 167 -635 51 -251 81 -366 173 -641 121 -365 185 -596 290 -1056 76
-331 139 -558 251 -906 155 -486 214 -701 325 -1197 115 -512 234 -964 291
-1105 21 -53 32 -104 39 -175 6 -64 19 -127 36 -173 113 -307 194 -578 264
-888 63 -277 132 -535 204 -756 36 -109 81 -259 101 -333 119 -440 166 -547
304 -694 64 -68 178 -146 254 -174 29 -11 88 -25 132 -32 44 -6 135 -25 202
-41 l123 -30 872 4 c864 3 874 3 956 25 113 30 172 56 269 118 103 66 163 121
218 199 89 126 109 178 235 630 49 176 116 401 149 500 73 223 145 484 211
765 68 292 146 565 235 828 73 214 94 304 95 407 1 55 13 103 88 345 108 354
286 1036 417 1600 152 657 277 1106 476 1720 72 220 105 345 210 785 18 72 58
209 90 305 104 306 168 544 234 860 47 225 101 436 161 625 50 159 73 262 74
335 0 43 8 69 80 260 48 130 114 366 155 555 61 280 142 601 191 755 89 282
93 299 103 418 9 108 16 138 90 358 94 282 145 465 207 744 88 396 143 596
253 920 53 155 74 233 85 317 21 149 29 186 76 328 58 177 157 545 276 1025
126 511 184 717 303 1082 100 307 175 594 215 828 70 406 129 644 214 872 57
150 126 387 178 609 45 193 118 463 149 549 25 72 155 552 269 995 58 226 130
500 161 610 78 280 88 365 60 500 -24 113 -67 187 -164 284 -65 65 -105 95
-161 123 -113 56 -184 62 -820 66 -882 6 -1118 -20 -1362 -150 -101 -54 -166
-112 -227 -203 -64 -96 -99 -188 -178 -470 -36 -126 -89 -306 -119 -400 -93
-294 -138 -485 -214 -915 -56 -315 -145 -697 -205 -880 -90 -274 -150 -519
-265 -1075 -61 -292 -168 -721 -275 -1095 -232 -814 -447 -1687 -665 -2705
-226 -1057 -446 -1946 -700 -2835 -127 -444 -214 -809 -320 -1340 -92 -461
-156 -712 -269 -1056 -56 -172 -87 -302 -132 -559 -17 -99 -53 -266 -80 -371
-70 -277 -178 -728 -270 -1129 -129 -563 -208 -866 -334 -1285 -24 -80 -55
-190 -70 -245 -75 -286 -138 -450 -214 -563 -22 -34 -58 -88 -80 -120 -48 -71
-109 -128 -147 -136 -42 -9 -177 28 -228 64 -108 73 -154 167 -241 485 -36
132 -106 375 -155 540 -102 342 -167 583 -235 870 -152 640 -233 930 -369
1314 -82 230 -98 295 -122 486 -9 71 -26 163 -39 205 -241 783 -357 1212 -525
1945 -122 535 -250 1016 -400 1505 -67 217 -200 709 -295 1090 -15 58 -48 170
-75 250 -60 180 -100 331 -140 524 -45 220 -85 370 -151 573 -51 158 -61 199
-69 300 -8 103 -13 125 -45 190 -43 88 -149 455 -199 693 -88 411 -165 694
-259 955 -18 48 -29 108 -37 194 -13 152 -9 137 -82 359 -75 231 -144 485
-198 723 -90 404 -200 788 -287 1009 -38 96 -47 132 -54 218 -7 82 -20 135
-59 253 -98 293 -146 474 -206 779 -67 336 -122 523 -277 940 -52 140 -124
346 -160 457 -36 110 -75 219 -86 240 -80 158 -260 280 -521 355 -136 38 -58
37 -1245 24 -800 -8 -861 -12 -1028 -61 -104 -30 -186 -69 -285 -138 -153
-105 -251 -250 -293 -432 -86 -369 -159 -641 -219 -825 -91 -275 -173 -563
-245 -865 -103 -431 -181 -705 -291 -1025 -78 -226 -83 -248 -94 -382 -8 -99
-18 -142 -64 -285 -197 -610 -418 -1424 -611 -2253 -159 -684 -322 -1297 -506
-1908 -208 -688 -303 -1021 -374 -1317 -24 -99 -69 -251 -99 -337 -72 -204
-121 -387 -185 -678 -59 -271 -117 -490 -191 -710 -38 -115 -54 -179 -61 -250
-13 -134 -15 -145 -81 -335 -100 -288 -153 -487 -264 -990 -52 -237 -127 -504
-208 -740 -57 -167 -76 -251 -76 -347 0 -78 -21 -168 -75 -328 -77 -228 -170
-543 -269 -913 -91 -337 -195 -695 -251 -857 -35 -103 -93 -325 -169 -650 -72
-312 -98 -393 -167 -535 -73 -151 -155 -264 -212 -296 -26 -14 -60 -38 -76
-53 -28 -27 -29 -27 -92 -16 -119 21 -196 72 -259 170 -43 67 -60 121 -146
458 -41 163 -105 387 -141 497 -139 428 -249 861 -338 1335 -85 451 -182 863
-296 1261 -47 164 -72 280 -109 499 -36 209 -67 355 -119 550 -208 775 -390
1548 -581 2465 -230 1105 -528 2320 -695 2836 -69 212 -127 451 -160 649 -77
470 -112 630 -195 884 -121 373 -217 773 -280 1171 -54 343 -168 831 -250
1076 -31 90 -38 135 -49 284 -8 115 -16 161 -46 255 -56 178 -147 528 -236
914 -45 193 -110 457 -146 586 -41 150 -91 376 -139 625 -82 423 -101 488
-180 606 -103 155 -348 314 -574 372 -141 37 -252 47 -475 45 -110 -1 -393 -5
-630 -8z"/>
</g>
</svg>
